<svg width="146" height="253" viewBox="0 0 146 253" fill="none" xmlns="http://www.w3.org/2000/svg">
<g clip-path="url(#clip0_2050_149)">
<rect width="146" height="253" fill="white"/>
<path d="M18.0234 15.7266C18.2005 15.7266 18.3255 15.7682 18.3984 15.8516C18.4766 15.9297 18.5156 16.0651 18.5156 16.2578C18.5156 16.4505 18.4766 16.5885 18.3984 16.6719C18.3255 16.75 18.2005 16.7891 18.0234 16.7891H17.4219L14.6172 24.6641C14.5495 24.8464 14.4479 24.9766 14.3125 25.0547C14.1823 25.1328 14.0026 25.1719 13.7734 25.1719C13.5495 25.1719 13.3698 25.1302 13.2344 25.0469C13.1042 24.9688 13.0078 24.8411 12.9453 24.6641L10.1641 16.7891H9.57031C9.39323 16.7891 9.26562 16.75 9.1875 16.6719C9.11458 16.5885 9.07812 16.4505 9.07812 16.2578C9.07812 16.0651 9.11458 15.9297 9.1875 15.8516C9.26562 15.7682 9.39323 15.7266 9.57031 15.7266H12.4922C12.6693 15.7266 12.7943 15.7682 12.8672 15.8516C12.9453 15.9297 12.9844 16.0651 12.9844 16.2578C12.9844 16.4505 12.9453 16.5885 12.8672 16.6719C12.7943 16.75 12.6693 16.7891 12.4922 16.7891H11.3906L13.7812 23.6953L16.1953 16.7891H15.4141C15.237 16.7891 15.1094 16.75 15.0312 16.6719C14.9583 16.5885 14.9219 16.4505 14.9219 16.2578C14.9219 16.0651 14.9583 15.9297 15.0312 15.8516C15.1094 15.7682 15.237 15.7266 15.4141 15.7266H18.0234Z" fill="black"/>
<path d="M57.7377 84C84.623 84 90 64.6861 90 59.9562C90 52.5985 83.3115 48 73.8689 48C49.6066 48 42 64.5547 42 72.0438C42 79.6642 48.8197 84 57.7377 84Z" fill="#00008B"/>
<path d="M61.9034 72V71.233L64.7841 68.0795C65.1222 67.7102 65.4006 67.3892 65.6193 67.1165C65.8381 66.8409 66 66.5824 66.1051 66.3409C66.2131 66.0966 66.267 65.8409 66.267 65.5739C66.267 65.267 66.1932 65.0014 66.0455 64.777C65.9006 64.5526 65.7017 64.3793 65.4489 64.2571C65.196 64.1349 64.9119 64.0739 64.5966 64.0739C64.2614 64.0739 63.9688 64.1435 63.7188 64.2827C63.4716 64.419 63.2798 64.6108 63.1435 64.858C63.0099 65.1051 62.9432 65.3949 62.9432 65.7273H61.9375C61.9375 65.2159 62.0554 64.767 62.2912 64.3807C62.527 63.9943 62.848 63.6932 63.2543 63.4773C63.6634 63.2614 64.1222 63.1534 64.6307 63.1534C65.142 63.1534 65.5952 63.2614 65.9901 63.4773C66.3849 63.6932 66.6946 63.9844 66.919 64.3509C67.1435 64.7173 67.2557 65.125 67.2557 65.5739C67.2557 65.8949 67.1974 66.2088 67.081 66.5156C66.9673 66.8196 66.7685 67.1591 66.4844 67.5341C66.2031 67.9062 65.8125 68.3608 65.3125 68.8977L63.3523 70.9943V71.0625H67.4091V72H61.9034Z" fill="white"/>
<line x1="9" y1="33.5" x2="137" y2="33.5" stroke="black"/>
<path d="M65 118L89 136L65 154L41 136L65 118Z" fill="#6495ED"/>
<path d="M62.1761 142L66.0795 134.278V134.21H61.5795V133.273H67.1705V134.261L63.2841 142H62.1761Z" fill="white"/>
<path d="M57.7377 224C84.623 224 90 204.686 90 199.956C90 192.598 83.3115 188 73.8689 188C49.6066 188 42 204.555 42 212.044C42 219.664 48.8197 224 57.7377 224Z" fill="#00008B"/>
<path d="M64.6307 212.119C64.1307 212.119 63.6804 212.02 63.2798 211.821C62.8793 211.622 62.5582 211.349 62.3168 211.003C62.0753 210.656 61.9432 210.261 61.9205 209.818H62.9432C62.983 210.213 63.1619 210.54 63.4801 210.798C63.8011 211.054 64.1847 211.182 64.6307 211.182C64.9886 211.182 65.3068 211.098 65.5852 210.93C65.8665 210.763 66.0866 210.533 66.2457 210.24C66.4077 209.945 66.4886 209.611 66.4886 209.239C66.4886 208.858 66.4048 208.518 66.2372 208.22C66.0724 207.919 65.8452 207.682 65.5554 207.509C65.2656 207.335 64.9347 207.247 64.5625 207.244C64.2955 207.241 64.0213 207.283 63.7401 207.368C63.4588 207.45 63.2273 207.557 63.0455 207.688L62.0568 207.568L62.5852 203.273H67.1193V204.21H63.4716L63.1648 206.784H63.2159C63.3949 206.642 63.6193 206.524 63.8892 206.43C64.1591 206.337 64.4403 206.29 64.733 206.29C65.267 206.29 65.7429 206.418 66.1605 206.673C66.581 206.926 66.9105 207.273 67.1491 207.713C67.3906 208.153 67.5114 208.656 67.5114 209.222C67.5114 209.778 67.3864 210.276 67.1364 210.713C66.8892 211.148 66.5483 211.491 66.1136 211.744C65.679 211.994 65.1847 212.119 64.6307 212.119Z" fill="white"/>
<rect x="0.5" y="0.5" width="145" height="252" rx="1.5" stroke="black"/>
</g>
<defs>
<clipPath id="clip0_2050_149">
<rect width="146" height="253" fill="white"/>
</clipPath>
</defs>
</svg>
