<svg width="146" height="253" viewBox="0 0 146 253" fill="none" xmlns="http://www.w3.org/2000/svg">
<g clip-path="url(#clip0_2049_93)">
<rect width="146" height="253" fill="white"/>
<path d="M16.7109 15.5547C16.9245 15.5547 17.0755 15.5938 17.1641 15.6719C17.2526 15.75 17.2969 15.8802 17.2969 16.0625V18.3281C17.2969 18.5104 17.2526 18.6406 17.1641 18.7188C17.0755 18.7969 16.9245 18.8359 16.7109 18.8359C16.4974 18.8359 16.3464 18.7969 16.2578 18.7188C16.1693 18.6406 16.125 18.5104 16.125 18.3281C16.125 18.0156 16.0391 17.737 15.8672 17.4922C15.7005 17.2474 15.4531 17.0573 15.125 16.9219C14.7969 16.7812 14.4062 16.7109 13.9531 16.7109C13.375 16.7109 12.862 16.8594 12.4141 17.1562C11.9714 17.4531 11.625 17.8776 11.375 18.4297C11.125 18.9818 11 19.6276 11 20.3672C11 21.1068 11.1172 21.7526 11.3516 22.3047C11.5911 22.8516 11.9271 23.2734 12.3594 23.5703C12.7969 23.8672 13.3021 24.0156 13.875 24.0156C14.7865 24.0156 15.5651 23.8672 16.2109 23.5703V21.7969H14.2812C14.1042 21.7969 13.9766 21.7578 13.8984 21.6797C13.8255 21.5964 13.7891 21.4583 13.7891 21.2656C13.7891 21.0729 13.8255 20.9375 13.8984 20.8594C13.9766 20.776 14.1042 20.7344 14.2812 20.7344H17.6328C17.8099 20.7344 17.9349 20.776 18.0078 20.8594C18.0859 20.9375 18.125 21.0729 18.125 21.2656C18.125 21.4583 18.0859 21.5964 18.0078 21.6797C17.9349 21.7578 17.8099 21.7969 17.6328 21.7969H17.3828V23.8828C17.3828 24.138 17.2891 24.3177 17.1016 24.4219C16.6745 24.6667 16.1823 24.8542 15.625 24.9844C15.0677 25.1094 14.4844 25.1719 13.875 25.1719C13.0625 25.1719 12.3438 24.974 11.7188 24.5781C11.099 24.1771 10.6172 23.6146 10.2734 22.8906C9.9349 22.1615 9.76562 21.3203 9.76562 20.3672C9.76562 19.4193 9.9401 18.5807 10.2891 17.8516C10.6432 17.1224 11.1302 16.5573 11.75 16.1562C12.375 15.7552 13.0833 15.5547 13.875 15.5547C14.3646 15.5547 14.7969 15.6328 15.1719 15.7891C15.5521 15.9401 15.8698 16.1589 16.125 16.4453V16.0625C16.125 15.8802 16.1693 15.75 16.2578 15.6719C16.3464 15.5938 16.4974 15.5547 16.7109 15.5547ZM34.2109 14.2578C34.2682 14.2266 34.3229 14.2109 34.375 14.2109C34.4583 14.2109 34.5365 14.2396 34.6094 14.2969C34.6875 14.3542 34.7552 14.4297 34.8125 14.5234C34.901 14.6745 34.9453 14.8151 34.9453 14.9453C34.9453 15.0495 34.9115 15.125 34.8438 15.1719C33.9427 15.7656 33.1875 16.5469 32.5781 17.5156C31.9688 18.4844 31.6641 19.6328 31.6641 20.9609C31.6641 22.2891 31.9661 23.4323 32.5703 24.3906C33.1797 25.349 33.9375 26.125 34.8438 26.7188C34.9115 26.7656 34.9453 26.8411 34.9453 26.9453C34.9453 27.0755 34.901 27.2161 34.8125 27.3672C34.7552 27.4609 34.6875 27.5365 34.6094 27.5938C34.5365 27.651 34.4583 27.6797 34.375 27.6797C34.3229 27.6797 34.2682 27.6641 34.2109 27.6328C33.5755 27.2526 32.9766 26.7448 32.4141 26.1094C31.8568 25.4792 31.3984 24.724 31.0391 23.8438C30.6849 22.9635 30.5078 22.0026 30.5078 20.9609C30.5078 19.9193 30.6849 18.9557 31.0391 18.0703C31.3984 17.1849 31.8594 16.4245 32.4219 15.7891C32.9844 15.1484 33.5807 14.638 34.2109 14.2578ZM46.8047 15.7266C46.9818 15.7266 47.1068 15.7682 47.1797 15.8516C47.2578 15.9297 47.2969 16.0651 47.2969 16.2578C47.2969 16.4505 47.2578 16.5885 47.1797 16.6719C47.1068 16.75 46.9818 16.7891 46.8047 16.7891H46.2031L43.3984 24.6641C43.3307 24.8464 43.2292 24.9766 43.0938 25.0547C42.9635 25.1328 42.7839 25.1719 42.5547 25.1719C42.3307 25.1719 42.151 25.1302 42.0156 25.0469C41.8854 24.9688 41.7891 24.8411 41.7266 24.6641L38.9453 16.7891H38.3516C38.1745 16.7891 38.0469 16.75 37.9688 16.6719C37.8958 16.5885 37.8594 16.4505 37.8594 16.2578C37.8594 16.0651 37.8958 15.9297 37.9688 15.8516C38.0469 15.7682 38.1745 15.7266 38.3516 15.7266H41.2734C41.4505 15.7266 41.5755 15.7682 41.6484 15.8516C41.7266 15.9297 41.7656 16.0651 41.7656 16.2578C41.7656 16.4505 41.7266 16.5885 41.6484 16.6719C41.5755 16.75 41.4505 16.7891 41.2734 16.7891H40.1719L42.5625 23.6953L44.9766 16.7891H44.1953C44.0182 16.7891 43.8906 16.75 43.8125 16.6719C43.7396 16.5885 43.7031 16.4505 43.7031 16.2578C43.7031 16.0651 43.7396 15.9297 43.8125 15.8516C43.8906 15.7682 44.0182 15.7266 44.1953 15.7266H46.8047ZM50.9453 14.2578C51.5755 14.638 52.1719 15.1484 52.7344 15.7891C53.2969 16.4245 53.7552 17.1849 54.1094 18.0703C54.4688 18.9557 54.6484 19.9193 54.6484 20.9609C54.6484 22.0026 54.4688 22.9635 54.1094 23.8438C53.7552 24.724 53.2969 25.4792 52.7344 26.1094C52.1771 26.7448 51.5807 27.2526 50.9453 27.6328C50.888 27.6641 50.8333 27.6797 50.7812 27.6797C50.6979 27.6797 50.6172 27.651 50.5391 27.5938C50.4661 27.5365 50.401 27.4609 50.3438 27.3672C50.2552 27.2161 50.2109 27.0755 50.2109 26.9453C50.2109 26.8411 50.2448 26.7656 50.3125 26.7188C51.2188 26.125 51.974 25.349 52.5781 24.3906C53.1875 23.4323 53.4922 22.2891 53.4922 20.9609C53.4922 19.6328 53.1875 18.4844 52.5781 17.5156C51.9688 16.5469 51.2135 15.7656 50.3125 15.1719C50.2448 15.125 50.2109 15.0495 50.2109 14.9453C50.2109 14.8151 50.2552 14.6745 50.3438 14.5234C50.401 14.4297 50.4661 14.3542 50.5391 14.2969C50.6172 14.2396 50.6979 14.2109 50.7812 14.2109C50.8333 14.2109 50.888 14.2266 50.9453 14.2578Z" fill="black"/>
<line x1="9" y1="33.5" x2="137" y2="33.5" stroke="black"/>
<path d="M12.75 72H10.0568V63.2727H12.8693C13.7159 63.2727 14.4403 63.4474 15.0426 63.7969C15.6449 64.1435 16.1065 64.642 16.4276 65.2926C16.7486 65.9403 16.9091 66.7159 16.9091 67.6193C16.9091 68.5284 16.7472 69.3111 16.4233 69.9673C16.0994 70.6207 15.6278 71.1236 15.0085 71.4759C14.3892 71.8253 13.6364 72 12.75 72ZM11.1136 71.0625H12.6818C13.4034 71.0625 14.0014 70.9233 14.4759 70.6449C14.9503 70.3665 15.304 69.9702 15.5369 69.456C15.7699 68.9418 15.8864 68.3295 15.8864 67.6193C15.8864 66.9148 15.7713 66.3082 15.5412 65.7997C15.3111 65.2884 14.9673 64.8963 14.5099 64.6236C14.0526 64.348 13.483 64.2102 12.8011 64.2102H11.1136V71.0625Z" fill="black"/>
<path d="M57.7377 84C84.623 84 90 64.6861 90 59.9562C90 52.5985 83.3115 48 73.8689 48C49.6066 48 42 64.5547 42 72.0438C42 79.6642 48.8197 84 57.7377 84Z" fill="#00008B" stroke="#00FF00" stroke-width="3"/>
<path d="M61.9034 72V71.233L64.7841 68.0795C65.1222 67.7102 65.4006 67.3892 65.6193 67.1165C65.8381 66.8409 66 66.5824 66.1051 66.3409C66.2131 66.0966 66.267 65.8409 66.267 65.5739C66.267 65.267 66.1932 65.0014 66.0455 64.777C65.9006 64.5526 65.7017 64.3793 65.4489 64.2571C65.196 64.1349 64.9119 64.0739 64.5966 64.0739C64.2614 64.0739 63.9688 64.1435 63.7188 64.2827C63.4716 64.419 63.2798 64.6108 63.1435 64.858C63.0099 65.1051 62.9432 65.3949 62.9432 65.7273H61.9375C61.9375 65.2159 62.0554 64.767 62.2912 64.3807C62.527 63.9943 62.848 63.6932 63.2543 63.4773C63.6634 63.2614 64.1222 63.1534 64.6307 63.1534C65.142 63.1534 65.5952 63.2614 65.9901 63.4773C66.3849 63.6932 66.6946 63.9844 66.919 64.3509C67.1435 64.7173 67.2557 65.125 67.2557 65.5739C67.2557 65.8949 67.1974 66.2088 67.081 66.5156C66.9673 66.8196 66.7685 67.1591 66.4844 67.5341C66.2031 67.9062 65.8125 68.3608 65.3125 68.8977L63.3523 70.9943V71.0625H67.4091V72H61.9034Z" fill="white"/>
<path d="M99.767 64V58.5455H100.577V59.3977H100.648C100.761 59.1065 100.945 58.8804 101.198 58.7195C101.451 58.5561 101.756 58.4744 102.111 58.4744C102.471 58.4744 102.77 58.5561 103.009 58.7195C103.251 58.8804 103.439 59.1065 103.574 59.3977H103.631C103.77 59.116 103.98 58.8923 104.259 58.7266C104.539 58.5585 104.874 58.4744 105.264 58.4744C105.752 58.4744 106.151 58.6271 106.461 58.9325C106.771 59.2356 106.926 59.7079 106.926 60.3494V64H106.088V60.3494C106.088 59.947 105.978 59.6593 105.758 59.4865C105.538 59.3137 105.278 59.2273 104.98 59.2273C104.597 59.2273 104.299 59.3433 104.089 59.5753C103.878 59.8049 103.773 60.0961 103.773 60.4489V64H102.92V60.2642C102.92 59.9541 102.82 59.7043 102.619 59.5149C102.417 59.3232 102.158 59.2273 101.841 59.2273C101.623 59.2273 101.42 59.2853 101.23 59.4013C101.043 59.5173 100.892 59.6783 100.776 59.8842C100.662 60.0878 100.605 60.3234 100.605 60.5909V64H99.767ZM110.745 64.1136C110.22 64.1136 109.766 63.9976 109.385 63.7656C109.007 63.5312 108.714 63.2045 108.508 62.7855C108.305 62.3641 108.203 61.8741 108.203 61.3153C108.203 60.7566 108.305 60.2642 108.508 59.8381C108.714 59.4096 109.001 59.0758 109.368 58.8366C109.737 58.5952 110.168 58.4744 110.66 58.4744C110.944 58.4744 111.225 58.5218 111.502 58.6165C111.779 58.7112 112.031 58.8651 112.258 59.0781C112.485 59.2888 112.667 59.5682 112.801 59.9162C112.936 60.2642 113.004 60.6927 113.004 61.2017V61.5568H108.799V60.8324H112.152C112.152 60.5246 112.09 60.25 111.967 60.0085C111.846 59.767 111.673 59.5765 111.449 59.4368C111.226 59.2971 110.963 59.2273 110.66 59.2273C110.326 59.2273 110.038 59.3101 109.794 59.4759C109.552 59.6392 109.366 59.8523 109.236 60.1151C109.106 60.3778 109.041 60.6596 109.041 60.9602V61.4432C109.041 61.8551 109.112 62.2043 109.254 62.4908C109.398 62.7749 109.598 62.9915 109.854 63.1406C110.11 63.2874 110.407 63.3608 110.745 63.3608C110.966 63.3608 111.164 63.33 111.342 63.2685C111.522 63.2045 111.677 63.1098 111.807 62.9844C111.937 62.8565 112.038 62.6979 112.109 62.5085L112.919 62.7358C112.833 63.0104 112.69 63.2519 112.489 63.4602C112.288 63.6662 112.039 63.8272 111.743 63.9432C111.447 64.0568 111.115 64.1136 110.745 64.1136ZM115.117 56.7273V64H114.279V56.7273H115.117ZM118.868 64.1136C118.375 64.1136 117.943 63.9964 117.572 63.7621C117.202 63.5277 116.913 63.1998 116.705 62.7784C116.499 62.357 116.396 61.8646 116.396 61.3011C116.396 60.733 116.499 60.237 116.705 59.8132C116.913 59.3894 117.202 59.0604 117.572 58.826C117.943 58.5916 118.375 58.4744 118.868 58.4744C119.36 58.4744 119.791 58.5916 120.16 58.826C120.532 59.0604 120.821 59.3894 121.027 59.8132C121.235 60.237 121.339 60.733 121.339 61.3011C121.339 61.8646 121.235 62.357 121.027 62.7784C120.821 63.1998 120.532 63.5277 120.16 63.7621C119.791 63.9964 119.36 64.1136 118.868 64.1136ZM118.868 63.3608C119.242 63.3608 119.55 63.2649 119.791 63.0732C120.032 62.8814 120.211 62.6293 120.327 62.3168C120.443 62.0043 120.501 61.6657 120.501 61.3011C120.501 60.9366 120.443 60.5968 120.327 60.282C120.211 59.9671 120.032 59.7126 119.791 59.5185C119.55 59.3243 119.242 59.2273 118.868 59.2273C118.494 59.2273 118.186 59.3243 117.944 59.5185C117.703 59.7126 117.524 59.9671 117.408 60.282C117.292 60.5968 117.234 60.9366 117.234 61.3011C117.234 61.6657 117.292 62.0043 117.408 62.3168C117.524 62.6293 117.703 62.8814 117.944 63.0732C118.186 63.2649 118.494 63.3608 118.868 63.3608ZM124.678 64.1136C124.224 64.1136 123.822 63.9988 123.474 63.7692C123.126 63.5372 122.854 63.2105 122.658 62.7891C122.461 62.3653 122.363 61.8646 122.363 61.2869C122.363 60.714 122.461 60.2169 122.658 59.7955C122.854 59.3741 123.128 59.0485 123.478 58.8189C123.828 58.5893 124.233 58.4744 124.692 58.4744C125.048 58.4744 125.328 58.5336 125.534 58.652C125.742 58.768 125.901 58.9006 126.01 59.0497C126.121 59.1965 126.208 59.3172 126.269 59.4119H126.34V56.7273H127.178V64H126.369V63.1619H126.269C126.208 63.2614 126.12 63.3868 126.006 63.5384C125.893 63.6875 125.731 63.8213 125.52 63.9396C125.309 64.0556 125.029 64.1136 124.678 64.1136ZM124.792 63.3608C125.128 63.3608 125.412 63.2732 125.644 63.098C125.876 62.9205 126.053 62.6754 126.173 62.3629C126.294 62.0481 126.354 61.6847 126.354 61.2727C126.354 60.8655 126.295 60.5092 126.177 60.2038C126.058 59.8961 125.883 59.657 125.651 59.4865C125.419 59.3137 125.133 59.2273 124.792 59.2273C124.437 59.2273 124.141 59.3184 123.904 59.5007C123.67 59.6806 123.493 59.9257 123.375 60.2358C123.259 60.5436 123.201 60.8892 123.201 61.2727C123.201 61.661 123.26 62.0137 123.379 62.331C123.499 62.6458 123.677 62.8968 123.911 63.0838C124.148 63.2685 124.442 63.3608 124.792 63.3608ZM129.369 66.0455C129.227 66.0455 129.101 66.0336 128.989 66.0099C128.878 65.9886 128.801 65.9673 128.759 65.946L128.972 65.2074C129.175 65.2595 129.355 65.2784 129.511 65.2642C129.668 65.25 129.806 65.1802 129.927 65.0547C130.05 64.9316 130.162 64.7315 130.264 64.4545L130.42 64.0284L128.403 58.5455H129.312L130.818 62.892H130.875L132.381 58.5455H133.29L130.974 64.7955C130.87 65.0772 130.741 65.3104 130.587 65.495C130.433 65.6821 130.255 65.8205 130.051 65.9105C129.85 66.0005 129.623 66.0455 129.369 66.0455Z" fill="black"/>
<path d="M10.0568 142V133.273H13.108C13.7159 133.273 14.2173 133.378 14.6122 133.588C15.0071 133.795 15.3011 134.075 15.4943 134.428C15.6875 134.777 15.7841 135.165 15.7841 135.591C15.7841 135.966 15.7173 136.276 15.5838 136.52C15.4531 136.764 15.2798 136.957 15.0639 137.099C14.8509 137.241 14.6193 137.347 14.3693 137.415V137.5C14.6364 137.517 14.9048 137.611 15.1747 137.781C15.4446 137.952 15.6705 138.196 15.8523 138.514C16.0341 138.832 16.125 139.222 16.125 139.682C16.125 140.119 16.0256 140.513 15.8267 140.862C15.6278 141.212 15.3139 141.489 14.8849 141.693C14.456 141.898 13.8977 142 13.2102 142H10.0568ZM11.1136 141.062H13.2102C13.9006 141.062 14.3906 140.929 14.6804 140.662C14.973 140.392 15.1193 140.065 15.1193 139.682C15.1193 139.386 15.044 139.114 14.8935 138.864C14.7429 138.611 14.5284 138.409 14.25 138.259C13.9716 138.105 13.642 138.028 13.2614 138.028H11.1136V141.062ZM11.1136 137.108H13.0739C13.392 137.108 13.679 137.045 13.9347 136.92C14.1932 136.795 14.3977 136.619 14.5483 136.392C14.7017 136.165 14.7784 135.898 14.7784 135.591C14.7784 135.207 14.6449 134.882 14.3778 134.615C14.1108 134.345 13.6875 134.21 13.108 134.21H11.1136V137.108Z" fill="black"/>
<path d="M65 118L89 136L65 154L41 136L65 118Z" fill="#6495ED"/>
<path d="M62.1761 142L66.0795 134.278V134.21H61.5795V133.273H67.1705V134.261L63.2841 142H62.1761Z" fill="white"/>
<path d="M16.0227 206C15.929 205.713 15.8054 205.456 15.652 205.229C15.5014 204.999 15.321 204.803 15.1108 204.641C14.9034 204.479 14.6676 204.355 14.4034 204.27C14.1392 204.185 13.8494 204.142 13.5341 204.142C13.017 204.142 12.5469 204.276 12.1236 204.543C11.7003 204.81 11.3636 205.203 11.1136 205.723C10.8636 206.243 10.7386 206.881 10.7386 207.636C10.7386 208.392 10.8651 209.03 11.1179 209.55C11.3707 210.07 11.7131 210.463 12.1449 210.73C12.5767 210.997 13.0625 211.131 13.6023 211.131C14.1023 211.131 14.5426 211.024 14.9233 210.811C15.3068 210.595 15.6051 210.291 15.8182 209.899C16.0341 209.504 16.142 209.04 16.142 208.506L16.4659 208.574H13.8409V207.636H17.1648V208.574C17.1648 209.293 17.0114 209.918 16.7045 210.449C16.4006 210.98 15.9801 211.392 15.4432 211.685C14.9091 211.974 14.2955 212.119 13.6023 212.119C12.8295 212.119 12.1506 211.938 11.5653 211.574C10.983 211.21 10.5284 210.693 10.2017 210.023C9.87784 209.352 9.71591 208.557 9.71591 207.636C9.71591 206.946 9.80824 206.325 9.9929 205.774C10.1804 205.22 10.4446 204.749 10.7855 204.359C11.1264 203.97 11.5298 203.672 11.9957 203.464C12.4616 203.257 12.9744 203.153 13.5341 203.153C13.9943 203.153 14.4233 203.223 14.821 203.362C15.2216 203.499 15.5781 203.693 15.8906 203.946C16.206 204.196 16.4688 204.496 16.679 204.845C16.8892 205.192 17.0341 205.577 17.1136 206H16.0227Z" fill="black"/>
<path d="M57.7377 224C84.623 224 90 204.686 90 199.956C90 192.598 83.3115 188 73.8689 188C49.6066 188 42 204.555 42 212.044C42 219.664 48.8197 224 57.7377 224Z" fill="#00008B"/>
<path d="M64.6307 212.119C64.1307 212.119 63.6804 212.02 63.2798 211.821C62.8793 211.622 62.5582 211.349 62.3168 211.003C62.0753 210.656 61.9432 210.261 61.9205 209.818H62.9432C62.983 210.213 63.1619 210.54 63.4801 210.798C63.8011 211.054 64.1847 211.182 64.6307 211.182C64.9886 211.182 65.3068 211.098 65.5852 210.93C65.8665 210.763 66.0866 210.533 66.2457 210.24C66.4077 209.945 66.4886 209.611 66.4886 209.239C66.4886 208.858 66.4048 208.518 66.2372 208.22C66.0724 207.919 65.8452 207.682 65.5554 207.509C65.2656 207.335 64.9347 207.247 64.5625 207.244C64.2955 207.241 64.0213 207.283 63.7401 207.368C63.4588 207.45 63.2273 207.557 63.0455 207.688L62.0568 207.568L62.5852 203.273H67.1193V204.21H63.4716L63.1648 206.784H63.2159C63.3949 206.642 63.6193 206.524 63.8892 206.43C64.1591 206.337 64.4403 206.29 64.733 206.29C65.267 206.29 65.7429 206.418 66.1605 206.673C66.581 206.926 66.9105 207.273 67.1491 207.713C67.3906 208.153 67.5114 208.656 67.5114 209.222C67.5114 209.778 67.3864 210.276 67.1364 210.713C66.8892 211.148 66.5483 211.491 66.1136 211.744C65.679 211.994 65.1847 212.119 64.6307 212.119Z" fill="white"/>
<path d="M99.8807 220V212.727H100.719V215.412H100.79C100.851 215.317 100.937 215.196 101.045 215.05C101.157 214.901 101.315 214.768 101.521 214.652C101.73 214.534 102.011 214.474 102.366 214.474C102.826 214.474 103.231 214.589 103.581 214.819C103.931 215.049 104.205 215.374 104.401 215.795C104.598 216.217 104.696 216.714 104.696 217.287C104.696 217.865 104.598 218.365 104.401 218.789C104.205 219.21 103.933 219.537 103.585 219.769C103.237 219.999 102.835 220.114 102.381 220.114C102.03 220.114 101.75 220.056 101.539 219.94C101.328 219.821 101.166 219.687 101.053 219.538C100.939 219.387 100.851 219.261 100.79 219.162H100.69V220H99.8807ZM100.705 217.273C100.705 217.685 100.765 218.048 100.886 218.363C101.006 218.675 101.183 218.92 101.415 219.098C101.647 219.273 101.931 219.361 102.267 219.361C102.617 219.361 102.91 219.268 103.144 219.084C103.381 218.897 103.558 218.646 103.677 218.331C103.798 218.014 103.858 217.661 103.858 217.273C103.858 216.889 103.799 216.544 103.68 216.236C103.564 215.926 103.388 215.681 103.151 215.501C102.917 215.318 102.622 215.227 102.267 215.227C101.926 215.227 101.64 215.314 101.408 215.487C101.176 215.657 101 215.896 100.882 216.204C100.764 216.509 100.705 216.866 100.705 217.273ZM107.583 220.128C107.237 220.128 106.924 220.063 106.642 219.933C106.36 219.8 106.137 219.609 105.971 219.361C105.805 219.11 105.722 218.807 105.722 218.452C105.722 218.139 105.784 217.886 105.907 217.692C106.03 217.495 106.195 217.341 106.401 217.23C106.607 217.119 106.834 217.036 107.082 216.982C107.333 216.925 107.585 216.88 107.839 216.847C108.17 216.804 108.439 216.772 108.645 216.751C108.853 216.727 109.005 216.688 109.099 216.634C109.196 216.579 109.245 216.484 109.245 216.349V216.321C109.245 215.971 109.149 215.698 108.957 215.504C108.768 215.31 108.48 215.213 108.094 215.213C107.694 215.213 107.381 215.301 107.153 215.476C106.926 215.651 106.766 215.838 106.674 216.037L105.879 215.753C106.021 215.421 106.21 215.163 106.447 214.979C106.686 214.792 106.946 214.661 107.228 214.588C107.512 214.512 107.791 214.474 108.066 214.474C108.241 214.474 108.442 214.496 108.67 214.538C108.899 214.579 109.121 214.663 109.334 214.79C109.549 214.918 109.728 215.111 109.87 215.369C110.012 215.627 110.083 215.973 110.083 216.406V220H109.245V219.261H109.202C109.146 219.38 109.051 219.506 108.918 219.641C108.786 219.776 108.609 219.891 108.389 219.986C108.169 220.08 107.9 220.128 107.583 220.128ZM107.711 219.375C108.042 219.375 108.322 219.31 108.549 219.18C108.779 219.049 108.951 218.881 109.067 218.675C109.186 218.469 109.245 218.253 109.245 218.026V217.259C109.21 217.301 109.131 217.34 109.011 217.376C108.892 217.409 108.755 217.438 108.599 217.464C108.445 217.488 108.295 217.509 108.148 217.528C108.003 217.545 107.886 217.559 107.796 217.571C107.578 217.599 107.375 217.646 107.185 217.71C106.998 217.771 106.847 217.865 106.731 217.99C106.617 218.113 106.56 218.281 106.56 218.494C106.56 218.786 106.668 219.006 106.884 219.155C107.101 219.302 107.377 219.375 107.711 219.375ZM115.476 215.767L114.724 215.98C114.676 215.855 114.606 215.733 114.514 215.614C114.424 215.494 114.301 215.394 114.145 215.316C113.988 215.238 113.788 215.199 113.545 215.199C113.211 215.199 112.933 215.276 112.71 215.43C112.49 215.581 112.38 215.774 112.38 216.009C112.38 216.217 112.456 216.381 112.607 216.502C112.759 216.623 112.995 216.723 113.317 216.804L114.127 217.003C114.615 217.121 114.978 217.302 115.217 217.546C115.456 217.788 115.576 218.099 115.576 218.48C115.576 218.793 115.486 219.072 115.306 219.318C115.128 219.564 114.88 219.759 114.56 219.901C114.241 220.043 113.869 220.114 113.445 220.114C112.889 220.114 112.428 219.993 112.064 219.751C111.699 219.51 111.468 219.157 111.371 218.693L112.167 218.494C112.242 218.788 112.386 219.008 112.596 219.155C112.809 219.302 113.088 219.375 113.431 219.375C113.822 219.375 114.132 219.292 114.361 219.126C114.593 218.958 114.709 218.757 114.709 218.523C114.709 218.333 114.643 218.175 114.51 218.047C114.378 217.917 114.174 217.82 113.9 217.756L112.991 217.543C112.491 217.424 112.124 217.241 111.89 216.992C111.658 216.741 111.542 216.428 111.542 216.051C111.542 215.743 111.628 215.471 111.801 215.234C111.976 214.998 112.214 214.812 112.515 214.677C112.818 214.542 113.161 214.474 113.545 214.474C114.084 214.474 114.508 214.593 114.816 214.83C115.126 215.066 115.346 215.379 115.476 215.767ZM120.701 215.767L119.948 215.98C119.901 215.855 119.831 215.733 119.739 215.614C119.649 215.494 119.526 215.394 119.369 215.316C119.213 215.238 119.013 215.199 118.769 215.199C118.435 215.199 118.157 215.276 117.935 215.43C117.714 215.581 117.604 215.774 117.604 216.009C117.604 216.217 117.68 216.381 117.832 216.502C117.983 216.623 118.22 216.723 118.542 216.804L119.352 217.003C119.839 217.121 120.203 217.302 120.442 217.546C120.681 217.788 120.8 218.099 120.8 218.48C120.8 218.793 120.71 219.072 120.531 219.318C120.353 219.564 120.104 219.759 119.785 219.901C119.465 220.043 119.094 220.114 118.67 220.114C118.113 220.114 117.653 219.993 117.288 219.751C116.924 219.51 116.693 219.157 116.596 218.693L117.391 218.494C117.467 218.788 117.61 219.008 117.821 219.155C118.034 219.302 118.312 219.375 118.656 219.375C119.046 219.375 119.356 219.292 119.586 219.126C119.818 218.958 119.934 218.757 119.934 218.523C119.934 218.333 119.868 218.175 119.735 218.047C119.603 217.917 119.399 217.82 119.124 217.756L118.215 217.543C117.716 217.424 117.349 217.241 117.114 216.992C116.882 216.741 116.766 216.428 116.766 216.051C116.766 215.743 116.853 215.471 117.026 215.234C117.201 214.998 117.439 214.812 117.739 214.677C118.042 214.542 118.386 214.474 118.769 214.474C119.309 214.474 119.733 214.593 120.04 214.83C120.351 215.066 120.571 215.379 120.701 215.767Z" fill="black"/>
<rect x="0.5" y="0.5" width="145" height="252" rx="1.5" stroke="black"/>
</g>
<defs>
<clipPath id="clip0_2049_93">
<rect width="146" height="253" fill="white"/>
</clipPath>
</defs>
</svg>
